<?xml version="1.0" encoding="UTF-8"?>
<!-- Generated by Pixelmator Pro 3.6.4 -->
<svg width="197" height="71" viewBox="0 0 197 71" xmlns="http://www.w3.org/2000/svg">
    <path id="Path" fill="#07497d" stroke="none" d="M 42.17841 62.980942 L 37.076813 62.980942 L 39.796356 48.1735 L 44.909721 48.1735 L 42.17841 62.980942 Z"/>
    <g id="Group">
        <path id="path1" fill="#07497d" stroke="none" d="M 36.813885 41.850555 C 37.865597 41.850555 39.160618 42.1385 40.161312 42.667053 L 39.686474 44.678719 C 39.305817 44.536724 38.540577 44.390778 37.920536 44.390778 C 35.479622 44.390778 35.263786 47.254448 35.051872 48.216888 L 37.779263 48.216888 L 37.347588 50.279835 L 34.67514 50.279835 L 32.289162 62.980942 L 27.183643 62.980942 L 29.522532 50.279835 L 27.470119 50.279835 L 27.803684 48.216888 L 29.930656 48.216888 C 30.550697 44.836502 32.55209 41.850555 36.81781 41.850555"/>
        <path id="path2" fill="#07497d" stroke="none" d="M 5.3449 62.980942 L 0 62.980942 L 3.826195 42.174 L 9.186792 42.174 L 5.3449 62.980942 Z"/>
        <path id="path3" fill="#07497d" stroke="none" d="M 77.73259 51.526279 C 77.73259 48.792778 75.440796 47.834274 73.149002 47.834274 C 68.090576 47.834274 63.463825 52.437447 63.463825 57.659885 C 63.463825 61.158611 65.755615 63.316223 68.997093 63.316223 C 72.430862 63.316223 75.248505 61.639835 76.394402 60.823334 L 75.96273 59.576885 C 74.911018 60.200111 73.337372 60.630058 71.85791 60.630058 C 69.34243 60.630058 68.530098 58.464554 68.804802 56.555447 C 71.665619 56.555447 77.728668 55.261669 77.728668 51.522331 M 72.293503 50.185165 C 73.152931 50.185165 73.580681 50.761055 73.580681 51.672222 C 73.580681 53.518219 71.273186 54.938221 68.90683 54.83567 C 69.240402 52.630722 70.625679 50.185165 72.293503 50.185165"/>
        <path id="path4" fill="#07497d" stroke="none" d="M 185.003403 30.845554 L 184.540344 30.285442 C 180.537552 31.314945 175.192642 32.013111 171.099594 32.013111 C 163.98877 32.013111 150.822723 30.352497 150.822723 20.755665 C 150.822723 14.310444 159.613174 9.498222 164.914902 7.908611 L 164.542099 7.301163 C 157.753036 8.890781 144.728287 14.125053 144.728287 22.578003 C 144.728287 30.419556 155.582901 33.792053 166.170685 33.792053 C 175.196579 33.792053 183.935989 31.314945 185.007324 30.849499"/>
        <path id="path5" fill="#0094da" stroke="none" d="M 102.746101 40.03611 L 103.20916 40.596222 C 107.21196 39.566719 112.556854 38.868557 116.649902 38.868557 C 123.760735 38.868557 136.926773 40.529167 136.926773 50.125999 C 136.926773 56.57122 128.136337 61.383442 122.834602 62.973053 L 123.207405 63.580502 C 129.99646 61.990891 143.021225 56.760551 143.021225 48.303665 C 143.021225 40.462112 132.166595 37.089611 121.578827 37.089611 C 112.552925 37.089611 103.813507 39.566719 102.742172 40.032166"/>
        <path id="path6" fill="#07497d" stroke="none" d="M 197.349274 35.409275 L 196.839096 34.754501 C 188.61377 38.079666 174.023209 41.72039 159.354172 40.051888 C 159.88002 41.097168 160.268524 42.193722 160.507919 43.333668 C 174.360703 43.333668 187.389389 40.308281 197.349274 35.405334"/>
        <path id="path7" fill="#0094da" stroke="none" d="M 145.43074 35.574944 C 148.978302 38.170387 152.274719 42.820889 152.054962 48.114334 C 151.442764 62.846832 130.129883 68.668831 123.748962 70.286057 L 124.270905 71 C 136.408768 68.850281 159.059845 61.983002 159.059845 46.098724 C 159.059845 42.87611 157.98851 39.976944 155.991043 37.456444 C 152.164841 32.671833 145.638718 30.147388 138.967407 28.881222 C 139.461868 30.064556 140.411545 31.22028 141.243515 32.111725 C 142.381561 33.346333 144.492828 34.880722 145.434662 35.574944"/>
        <path id="path8" fill="#07497d" stroke="none" d="M 164.055466 0.713943 L 163.537476 0 C 151.399597 2.149719 128.74852 9.017002 128.74852 24.901279 C 128.74852 28.12389 129.819855 31.023056 131.817322 33.543556 C 135.643524 38.328167 142.169647 40.852612 148.840958 42.118778 C 148.346497 40.935444 147.39682 39.779724 146.564865 38.888275 C 145.422897 37.653667 143.315536 36.119278 142.373703 35.425056 C 138.826141 32.829613 135.529709 28.179111 135.749481 22.88961 C 136.361679 8.153168 157.674561 2.335114 164.055466 0.717896"/>
        <path id="path9" fill="#0094da" stroke="none" d="M 90.4748 35.551277 L 90.984962 36.206055 C 99.210297 32.88089 113.80085 29.240166 128.469894 30.908669 C 127.944046 29.863388 127.555542 28.766834 127.316154 27.626888 C 113.463371 27.626888 100.434677 30.652279 90.4748 35.551277"/>
        <path id="path10" fill="#07497d" stroke="none" d="M 117.674141 47.838223 C 122.041885 47.984169 120.837135 52.713554 120.731171 53.395943 L 118.965233 62.980942 L 113.859726 62.980942 L 115.570717 53.636555 C 115.853264 52.121887 115.798325 51.336945 114.719139 51.336945 C 113.812622 51.336945 112.53331 52.149502 111.96035 52.776669 L 110.088463 62.984886 L 104.982941 62.984886 L 106.70179 53.640503 C 106.984344 52.125832 106.878387 51.340889 105.79528 51.340889 C 104.712166 51.340889 103.605522 52.248116 103.032562 52.823997 L 101.164604 62.984886 L 96.059082 62.984886 L 98.778625 48.1735 L 103.837051 48.1735 L 103.40538 50.378445 C 104.884834 48.938721 106.697876 47.838223 108.989662 47.838223 C 110.563301 47.838223 111.948578 48.891388 112.04277 50.520447 C 113.710602 48.796722 116.096573 47.838223 117.670219 47.838223"/>
        <path id="path11" fill="#07497d" stroke="none" d="M 61.925499 53.395943 L 60.159561 62.980942 L 55.054043 62.980942 L 56.761116 53.679943 C 56.831757 53.163223 57.188862 51.333 55.67408 51.333 C 54.649837 51.333 53.708008 51.948334 52.942772 52.666222 L 51.043407 62.980942 L 45.937889 62.980942 L 48.653507 48.169556 L 53.668762 48.169556 L 53.237095 50.3745 C 54.716553 48.792778 56.91024 47.834274 58.629082 47.834274 C 63.244064 47.834274 62.027531 52.701721 61.92157 53.391998"/>
        <path id="path12" fill="#07497d" stroke="none" d="M 25.080219 53.395943 L 23.314283 62.980942 L 18.208765 62.980942 L 19.911913 53.679943 C 19.98255 53.163223 20.339663 51.333 18.824881 51.333 C 17.800638 51.333 16.858805 51.948334 16.093565 52.666222 L 14.194202 62.980942 L 9.088685 62.980942 L 11.804303 48.169556 L 16.819563 48.169556 L 16.387888 50.3745 C 17.86735 48.792778 20.061035 47.834274 21.779881 47.834274 C 26.394861 47.834274 25.178328 52.701721 25.072371 53.391998"/>
        <path id="path13" fill="#07497d" stroke="none" d="M 84.148819 57.470554 C 84.078186 57.987274 83.68576 59.817497 85.200539 59.817497 C 86.299347 59.817497 87.213707 59.178497 87.975014 58.460613 L 89.874382 48.169556 L 94.979897 48.169556 L 92.260361 62.980942 L 87.249023 62.980942 L 87.676773 60.776001 C 86.197311 62.357719 84.003624 63.316223 82.284775 63.316223 C 77.6698 63.316223 78.886337 58.448776 78.992287 57.758499 L 80.73468 48.1735 L 85.863747 48.1735 L 84.144897 57.474503 Z"/>
    </g>
</svg>
